<svg width="267" height="20" viewBox="0 0 267 20" fill="none" xmlns="http://www.w3.org/2000/svg">
<path d="M0.0143924 19V2.2H7.88639C9.90239 2.2 11.4384 2.6 12.4944 3.4C13.5504 4.184 14.0784 5.24 14.0784 6.568C14.0784 7.464 13.8704 8.232 13.4544 8.872C13.0384 9.496 12.4784 9.984 11.7744 10.336C11.0864 10.672 10.3344 10.84 9.51839 10.84L9.95039 9.976C10.8944 9.976 11.7424 10.152 12.4944 10.504C13.2464 10.84 13.8384 11.336 14.2704 11.992C14.7184 12.648 14.9424 13.464 14.9424 14.44C14.9424 15.88 14.3904 17 13.2864 17.8C12.1824 18.6 10.5424 19 8.36639 19H0.0143924ZM3.13439 16.552H8.17439C9.34239 16.552 10.2384 16.36 10.8624 15.976C11.4864 15.592 11.7984 14.976 11.7984 14.128C11.7984 13.296 11.4864 12.688 10.8624 12.304C10.2384 11.904 9.34239 11.704 8.17439 11.704H2.89439V9.28H7.55039C8.63839 9.28 9.47039 9.088 10.0464 8.704C10.6384 8.32 10.9344 7.744 10.9344 6.976C10.9344 6.192 10.6384 5.608 10.0464 5.224C9.47039 4.84 8.63839 4.648 7.55039 4.648H3.13439V16.552ZM24.0082 19.168C22.5842 19.168 21.3362 18.888 20.2642 18.328C19.2082 17.752 18.3842 16.968 17.7922 15.976C17.2162 14.984 16.9282 13.856 16.9282 12.592C16.9282 11.312 17.2082 10.184 17.7682 9.208C18.3442 8.216 19.1282 7.44 20.1202 6.88C21.1282 6.32 22.2722 6.04 23.5522 6.04C24.8002 6.04 25.9122 6.312 26.8882 6.856C27.8642 7.4 28.6322 8.168 29.1922 9.16C29.7522 10.152 30.0322 11.32 30.0322 12.664C30.0322 12.792 30.0242 12.936 30.0082 13.096C30.0082 13.256 30.0002 13.408 29.9842 13.552H19.3042V11.56H28.4002L27.2242 12.184C27.2402 11.448 27.0882 10.8 26.7682 10.24C26.4482 9.68 26.0082 9.24 25.4482 8.92C24.9042 8.6 24.2722 8.44 23.5522 8.44C22.8162 8.44 22.1682 8.6 21.6082 8.92C21.0642 9.24 20.6322 9.688 20.3122 10.264C20.0082 10.824 19.8562 11.488 19.8562 12.256V12.736C19.8562 13.504 20.0322 14.184 20.3842 14.776C20.7362 15.368 21.2322 15.824 21.8722 16.144C22.5122 16.464 23.2482 16.624 24.0802 16.624C24.8002 16.624 25.4482 16.512 26.0242 16.288C26.6002 16.064 27.1122 15.712 27.5602 15.232L29.1682 17.08C28.5922 17.752 27.8642 18.272 26.9842 18.64C26.1202 18.992 25.1282 19.168 24.0082 19.168ZM36.8739 19.168C35.8019 19.168 34.7699 19.032 33.7779 18.76C32.8019 18.472 32.0259 18.128 31.4499 17.728L32.6019 15.448C33.1779 15.816 33.8659 16.12 34.6659 16.36C35.4659 16.6 36.2659 16.72 37.0659 16.72C38.0099 16.72 38.6899 16.592 39.1059 16.336C39.5379 16.08 39.7539 15.736 39.7539 15.304C39.7539 14.952 39.6099 14.688 39.3219 14.512C39.0339 14.32 38.6579 14.176 38.1939 14.08C37.7299 13.984 37.2099 13.896 36.6339 13.816C36.0739 13.736 35.5059 13.632 34.9299 13.504C34.3699 13.36 33.8579 13.16 33.3939 12.904C32.9299 12.632 32.5539 12.272 32.2659 11.824C31.9779 11.376 31.8339 10.784 31.8339 10.048C31.8339 9.232 32.0659 8.528 32.5299 7.936C32.9939 7.328 33.6419 6.864 34.4739 6.544C35.3219 6.208 36.3219 6.04 37.4739 6.04C38.3379 6.04 39.2099 6.136 40.0899 6.328C40.9699 6.52 41.6979 6.792 42.2739 7.144L41.1219 9.424C40.5139 9.056 39.8979 8.808 39.2739 8.68C38.6659 8.536 38.0579 8.464 37.4499 8.464C36.5379 8.464 35.8579 8.6 35.4099 8.872C34.9779 9.144 34.7619 9.488 34.7619 9.904C34.7619 10.288 34.9059 10.576 35.1939 10.768C35.4819 10.96 35.8579 11.112 36.3219 11.224C36.7859 11.336 37.2979 11.432 37.8579 11.512C38.4339 11.576 39.0019 11.68 39.5619 11.824C40.1219 11.968 40.6339 12.168 41.0979 12.424C41.5779 12.664 41.9619 13.008 42.2499 13.456C42.5379 13.904 42.6819 14.488 42.6819 15.208C42.6819 16.008 42.4419 16.704 41.9619 17.296C41.4979 17.888 40.8339 18.352 39.9699 18.688C39.1059 19.008 38.0739 19.168 36.8739 19.168ZM50.0895 19.168C48.6815 19.168 47.5935 18.808 46.8255 18.088C46.0575 17.352 45.6735 16.272 45.6735 14.848V3.352H48.6735V14.776C48.6735 15.384 48.8255 15.856 49.1295 16.192C49.4495 16.528 49.8895 16.696 50.4495 16.696C51.1215 16.696 51.6815 16.52 52.1295 16.168L52.9695 18.304C52.6175 18.592 52.1855 18.808 51.6735 18.952C51.1615 19.096 50.6335 19.168 50.0895 19.168ZM43.5615 8.68V6.28H52.1055V8.68H43.5615ZM62.0701 19V6.184H65.0701V19H62.0701ZM63.5821 4.072C63.0221 4.072 62.5581 3.896 62.1901 3.544C61.8381 3.192 61.6621 2.768 61.6621 2.272C61.6621 1.76 61.8381 1.336 62.1901 0.999999C62.5581 0.647999 63.0221 0.472 63.5821 0.472C64.1421 0.472 64.5981 0.639999 64.9501 0.975999C65.3181 1.296 65.5021 1.704 65.5021 2.2C65.5021 2.728 65.3261 3.176 64.9741 3.544C64.6221 3.896 64.1581 4.072 63.5821 4.072ZM76.2796 6.04C77.3036 6.04 78.2156 6.24 79.0156 6.64C79.8316 7.04 80.4716 7.656 80.9356 8.488C81.3996 9.304 81.6316 10.36 81.6316 11.656V19H78.6316V12.04C78.6316 10.904 78.3596 10.056 77.8156 9.496C77.2876 8.936 76.5436 8.656 75.5836 8.656C74.8796 8.656 74.2556 8.8 73.7116 9.088C73.1676 9.376 72.7436 9.808 72.4396 10.384C72.1516 10.944 72.0076 11.656 72.0076 12.52V19H69.0076V6.184H71.8636V9.64L71.3596 8.584C71.8076 7.768 72.4556 7.144 73.3036 6.712C74.1676 6.264 75.1596 6.04 76.2796 6.04ZM97.9501 19.168C96.6061 19.168 95.4061 18.888 94.3501 18.328C93.3101 17.752 92.4941 16.968 91.9021 15.976C91.3101 14.984 91.0141 13.856 91.0141 12.592C91.0141 11.312 91.3101 10.184 91.9021 9.208C92.4941 8.216 93.3101 7.44 94.3501 6.88C95.4061 6.32 96.6061 6.04 97.9501 6.04C99.1981 6.04 100.294 6.296 101.238 6.808C102.198 7.304 102.926 8.04 103.422 9.016L101.118 10.36C100.734 9.752 100.262 9.304 99.7021 9.016C99.1581 8.728 98.5661 8.584 97.9261 8.584C97.1901 8.584 96.5261 8.744 95.9341 9.064C95.3421 9.384 94.8781 9.848 94.5421 10.456C94.2061 11.048 94.0381 11.76 94.0381 12.592C94.0381 13.424 94.2061 14.144 94.5421 14.752C94.8781 15.344 95.3421 15.8 95.9341 16.12C96.5261 16.44 97.1901 16.6 97.9261 16.6C98.5661 16.6 99.1581 16.456 99.7021 16.168C100.262 15.88 100.734 15.432 101.118 14.824L103.422 16.168C102.926 17.128 102.198 17.872 101.238 18.4C100.294 18.912 99.1981 19.168 97.9501 19.168ZM105.898 19V1.192H108.898V19H105.898ZM120.732 19V16.408L120.564 15.856V11.32C120.564 10.44 120.3 9.76 119.772 9.28C119.244 8.784 118.444 8.536 117.372 8.536C116.652 8.536 115.94 8.648 115.236 8.872C114.548 9.096 113.964 9.408 113.484 9.808L112.308 7.624C112.996 7.096 113.812 6.704 114.756 6.448C115.716 6.176 116.708 6.04 117.732 6.04C119.588 6.04 121.02 6.488 122.028 7.384C123.052 8.264 123.564 9.632 123.564 11.488V19H120.732ZM116.7 19.168C115.74 19.168 114.9 19.008 114.18 18.688C113.46 18.352 112.9 17.896 112.5 17.32C112.116 16.728 111.924 16.064 111.924 15.328C111.924 14.608 112.092 13.96 112.428 13.384C112.78 12.808 113.348 12.352 114.132 12.016C114.916 11.68 115.956 11.512 117.252 11.512H120.972V13.504H117.468C116.444 13.504 115.756 13.672 115.404 14.008C115.052 14.328 114.876 14.728 114.876 15.208C114.876 15.752 115.092 16.184 115.524 16.504C115.956 16.824 116.556 16.984 117.324 16.984C118.06 16.984 118.716 16.816 119.292 16.48C119.884 16.144 120.308 15.648 120.564 14.992L121.068 16.792C120.78 17.544 120.26 18.128 119.508 18.544C118.772 18.96 117.836 19.168 116.7 19.168ZM131.374 19.168C130.302 19.168 129.27 19.032 128.278 18.76C127.302 18.472 126.526 18.128 125.95 17.728L127.102 15.448C127.678 15.816 128.366 16.12 129.166 16.36C129.966 16.6 130.766 16.72 131.566 16.72C132.51 16.72 133.19 16.592 133.606 16.336C134.038 16.08 134.254 15.736 134.254 15.304C134.254 14.952 134.11 14.688 133.822 14.512C133.534 14.32 133.158 14.176 132.694 14.08C132.23 13.984 131.71 13.896 131.134 13.816C130.574 13.736 130.006 13.632 129.43 13.504C128.87 13.36 128.358 13.16 127.894 12.904C127.43 12.632 127.054 12.272 126.766 11.824C126.478 11.376 126.334 10.784 126.334 10.048C126.334 9.232 126.566 8.528 127.03 7.936C127.494 7.328 128.142 6.864 128.974 6.544C129.822 6.208 130.822 6.04 131.974 6.04C132.838 6.04 133.71 6.136 134.59 6.328C135.47 6.52 136.198 6.792 136.774 7.144L135.622 9.424C135.014 9.056 134.398 8.808 133.774 8.68C133.166 8.536 132.558 8.464 131.95 8.464C131.038 8.464 130.358 8.6 129.91 8.872C129.478 9.144 129.262 9.488 129.262 9.904C129.262 10.288 129.406 10.576 129.694 10.768C129.982 10.96 130.358 11.112 130.822 11.224C131.286 11.336 131.798 11.432 132.358 11.512C132.934 11.576 133.502 11.68 134.062 11.824C134.622 11.968 135.134 12.168 135.598 12.424C136.078 12.664 136.462 13.008 136.75 13.456C137.038 13.904 137.182 14.488 137.182 15.208C137.182 16.008 136.942 16.704 136.462 17.296C135.998 17.888 135.334 18.352 134.47 18.688C133.606 19.008 132.574 19.168 131.374 19.168ZM143.725 19.168C142.653 19.168 141.621 19.032 140.629 18.76C139.653 18.472 138.877 18.128 138.301 17.728L139.453 15.448C140.029 15.816 140.717 16.12 141.517 16.36C142.317 16.6 143.117 16.72 143.917 16.72C144.861 16.72 145.541 16.592 145.957 16.336C146.389 16.08 146.605 15.736 146.605 15.304C146.605 14.952 146.461 14.688 146.173 14.512C145.885 14.32 145.509 14.176 145.045 14.08C144.581 13.984 144.061 13.896 143.485 13.816C142.925 13.736 142.357 13.632 141.781 13.504C141.221 13.36 140.709 13.16 140.245 12.904C139.781 12.632 139.405 12.272 139.117 11.824C138.829 11.376 138.685 10.784 138.685 10.048C138.685 9.232 138.917 8.528 139.381 7.936C139.845 7.328 140.493 6.864 141.325 6.544C142.173 6.208 143.173 6.04 144.325 6.04C145.189 6.04 146.061 6.136 146.941 6.328C147.821 6.52 148.549 6.792 149.125 7.144L147.973 9.424C147.365 9.056 146.749 8.808 146.125 8.68C145.517 8.536 144.909 8.464 144.301 8.464C143.389 8.464 142.709 8.6 142.261 8.872C141.829 9.144 141.613 9.488 141.613 9.904C141.613 10.288 141.757 10.576 142.045 10.768C142.333 10.96 142.709 11.112 143.173 11.224C143.637 11.336 144.149 11.432 144.709 11.512C145.285 11.576 145.853 11.68 146.413 11.824C146.973 11.968 147.485 12.168 147.949 12.424C148.429 12.664 148.813 13.008 149.101 13.456C149.389 13.904 149.533 14.488 149.533 15.208C149.533 16.008 149.293 16.704 148.813 17.296C148.349 17.888 147.685 18.352 146.821 18.688C145.957 19.008 144.925 19.168 143.725 19.168Z" fill="#138ED1"/>
<path d="M158.75 19V1.192H161.75V19H158.75ZM173.583 19V16.408L173.415 15.856V11.32C173.415 10.44 173.151 9.76 172.623 9.28C172.095 8.784 171.295 8.536 170.223 8.536C169.503 8.536 168.791 8.648 168.087 8.872C167.399 9.096 166.815 9.408 166.335 9.808L165.159 7.624C165.847 7.096 166.663 6.704 167.607 6.448C168.567 6.176 169.559 6.04 170.583 6.04C172.439 6.04 173.871 6.488 174.879 7.384C175.903 8.264 176.415 9.632 176.415 11.488V19H173.583ZM169.551 19.168C168.591 19.168 167.751 19.008 167.031 18.688C166.311 18.352 165.751 17.896 165.351 17.32C164.967 16.728 164.775 16.064 164.775 15.328C164.775 14.608 164.943 13.96 165.279 13.384C165.631 12.808 166.199 12.352 166.983 12.016C167.767 11.68 168.807 11.512 170.103 11.512H173.823V13.504H170.319C169.295 13.504 168.607 13.672 168.255 14.008C167.903 14.328 167.727 14.728 167.727 15.208C167.727 15.752 167.943 16.184 168.375 16.504C168.807 16.824 169.407 16.984 170.175 16.984C170.911 16.984 171.567 16.816 172.143 16.48C172.735 16.144 173.159 15.648 173.415 14.992L173.919 16.792C173.631 17.544 173.111 18.128 172.359 18.544C171.623 18.96 170.687 19.168 169.551 19.168ZM187.369 19.168C186.281 19.168 185.313 18.928 184.465 18.448C183.617 17.968 182.945 17.248 182.449 16.288C181.969 15.312 181.729 14.08 181.729 12.592C181.729 11.088 181.977 9.856 182.473 8.896C182.985 7.936 183.665 7.224 184.513 6.76C185.377 6.28 186.329 6.04 187.369 6.04C188.633 6.04 189.745 6.312 190.705 6.856C191.681 7.4 192.449 8.16 193.009 9.136C193.585 10.112 193.873 11.264 193.873 12.592C193.873 13.92 193.585 15.072 193.009 16.048C192.449 17.024 191.681 17.792 190.705 18.352C189.745 18.896 188.633 19.168 187.369 19.168ZM180.265 19V1.192H183.265V9.16L183.025 12.568L183.121 15.976V19H180.265ZM187.033 16.6C187.753 16.6 188.393 16.44 188.953 16.12C189.529 15.8 189.985 15.336 190.321 14.728C190.657 14.12 190.825 13.408 190.825 12.592C190.825 11.76 190.657 11.048 190.321 10.456C189.985 9.848 189.529 9.384 188.953 9.064C188.393 8.744 187.753 8.584 187.033 8.584C186.313 8.584 185.665 8.744 185.089 9.064C184.513 9.384 184.057 9.848 183.721 10.456C183.385 11.048 183.217 11.76 183.217 12.592C183.217 13.408 183.385 14.12 183.721 14.728C184.057 15.336 184.513 15.8 185.089 16.12C185.665 16.44 186.313 16.6 187.033 16.6ZM208.175 19.168C206.767 19.168 205.679 18.808 204.911 18.088C204.143 17.352 203.759 16.272 203.759 14.848V3.352H206.759V14.776C206.759 15.384 206.911 15.856 207.215 16.192C207.535 16.528 207.975 16.696 208.535 16.696C209.207 16.696 209.767 16.52 210.215 16.168L211.055 18.304C210.703 18.592 210.271 18.808 209.759 18.952C209.247 19.096 208.719 19.168 208.175 19.168ZM201.647 8.68V6.28H210.191V8.68H201.647ZM219.125 19.168C217.701 19.168 216.453 18.888 215.381 18.328C214.325 17.752 213.501 16.968 212.909 15.976C212.333 14.984 212.045 13.856 212.045 12.592C212.045 11.312 212.325 10.184 212.885 9.208C213.461 8.216 214.245 7.44 215.237 6.88C216.245 6.32 217.389 6.04 218.669 6.04C219.917 6.04 221.029 6.312 222.005 6.856C222.981 7.4 223.749 8.168 224.309 9.16C224.869 10.152 225.149 11.32 225.149 12.664C225.149 12.792 225.141 12.936 225.125 13.096C225.125 13.256 225.117 13.408 225.101 13.552H214.421V11.56H223.517L222.341 12.184C222.357 11.448 222.205 10.8 221.885 10.24C221.565 9.68 221.125 9.24 220.565 8.92C220.021 8.6 219.389 8.44 218.669 8.44C217.933 8.44 217.285 8.6 216.725 8.92C216.181 9.24 215.749 9.688 215.429 10.264C215.125 10.824 214.973 11.488 214.973 12.256V12.736C214.973 13.504 215.149 14.184 215.501 14.776C215.853 15.368 216.349 15.824 216.989 16.144C217.629 16.464 218.365 16.624 219.197 16.624C219.917 16.624 220.565 16.512 221.141 16.288C221.717 16.064 222.229 15.712 222.677 15.232L224.285 17.08C223.709 17.752 222.981 18.272 222.101 18.64C221.237 18.992 220.245 19.168 219.125 19.168ZM231.991 19.168C230.919 19.168 229.887 19.032 228.895 18.76C227.919 18.472 227.143 18.128 226.567 17.728L227.719 15.448C228.295 15.816 228.983 16.12 229.783 16.36C230.583 16.6 231.383 16.72 232.183 16.72C233.127 16.72 233.807 16.592 234.223 16.336C234.655 16.08 234.871 15.736 234.871 15.304C234.871 14.952 234.727 14.688 234.439 14.512C234.151 14.32 233.775 14.176 233.311 14.08C232.847 13.984 232.327 13.896 231.751 13.816C231.191 13.736 230.623 13.632 230.047 13.504C229.487 13.36 228.975 13.16 228.511 12.904C228.047 12.632 227.671 12.272 227.383 11.824C227.095 11.376 226.951 10.784 226.951 10.048C226.951 9.232 227.183 8.528 227.647 7.936C228.111 7.328 228.759 6.864 229.591 6.544C230.439 6.208 231.439 6.04 232.591 6.04C233.455 6.04 234.327 6.136 235.207 6.328C236.087 6.52 236.815 6.792 237.391 7.144L236.239 9.424C235.631 9.056 235.015 8.808 234.391 8.68C233.783 8.536 233.175 8.464 232.567 8.464C231.655 8.464 230.975 8.6 230.527 8.872C230.095 9.144 229.879 9.488 229.879 9.904C229.879 10.288 230.023 10.576 230.311 10.768C230.599 10.96 230.975 11.112 231.439 11.224C231.903 11.336 232.415 11.432 232.975 11.512C233.551 11.576 234.119 11.68 234.679 11.824C235.239 11.968 235.751 12.168 236.215 12.424C236.695 12.664 237.079 13.008 237.367 13.456C237.655 13.904 237.799 14.488 237.799 15.208C237.799 16.008 237.559 16.704 237.079 17.296C236.615 17.888 235.951 18.352 235.087 18.688C234.223 19.008 233.191 19.168 231.991 19.168ZM245.207 19.168C243.799 19.168 242.711 18.808 241.943 18.088C241.175 17.352 240.791 16.272 240.791 14.848V3.352H243.791V14.776C243.791 15.384 243.943 15.856 244.247 16.192C244.567 16.528 245.007 16.696 245.567 16.696C246.239 16.696 246.799 16.52 247.247 16.168L248.087 18.304C247.735 18.592 247.303 18.808 246.791 18.952C246.279 19.096 245.751 19.168 245.207 19.168ZM238.679 8.68V6.28H247.223V8.68H238.679ZM254.515 19.168C253.443 19.168 252.411 19.032 251.419 18.76C250.443 18.472 249.667 18.128 249.091 17.728L250.243 15.448C250.819 15.816 251.507 16.12 252.307 16.36C253.107 16.6 253.907 16.72 254.707 16.72C255.651 16.72 256.331 16.592 256.747 16.336C257.179 16.08 257.395 15.736 257.395 15.304C257.395 14.952 257.251 14.688 256.963 14.512C256.675 14.32 256.299 14.176 255.835 14.08C255.371 13.984 254.851 13.896 254.275 13.816C253.715 13.736 253.147 13.632 252.571 13.504C252.011 13.36 251.499 13.16 251.035 12.904C250.571 12.632 250.195 12.272 249.907 11.824C249.619 11.376 249.475 10.784 249.475 10.048C249.475 9.232 249.707 8.528 250.171 7.936C250.635 7.328 251.283 6.864 252.115 6.544C252.963 6.208 253.963 6.04 255.115 6.04C255.979 6.04 256.851 6.136 257.731 6.328C258.611 6.52 259.339 6.792 259.915 7.144L258.763 9.424C258.155 9.056 257.539 8.808 256.915 8.68C256.307 8.536 255.699 8.464 255.091 8.464C254.179 8.464 253.499 8.6 253.051 8.872C252.619 9.144 252.403 9.488 252.403 9.904C252.403 10.288 252.547 10.576 252.835 10.768C253.123 10.96 253.499 11.112 253.963 11.224C254.427 11.336 254.939 11.432 255.499 11.512C256.075 11.576 256.643 11.68 257.203 11.824C257.763 11.968 258.275 12.168 258.739 12.424C259.219 12.664 259.603 13.008 259.891 13.456C260.179 13.904 260.323 14.488 260.323 15.208C260.323 16.008 260.083 16.704 259.603 17.296C259.139 17.888 258.475 18.352 257.611 18.688C256.747 19.008 255.715 19.168 254.515 19.168ZM263.098 13.432L262.522 2.2H266.074L265.474 13.432H263.098ZM264.298 19.168C263.738 19.168 263.274 18.984 262.906 18.616C262.538 18.248 262.354 17.808 262.354 17.296C262.354 16.784 262.538 16.352 262.906 16C263.274 15.632 263.738 15.448 264.298 15.448C264.858 15.448 265.314 15.632 265.666 16C266.018 16.352 266.194 16.784 266.194 17.296C266.194 17.808 266.018 18.248 265.666 18.616C265.314 18.984 264.858 19.168 264.298 19.168Z" fill="#333333"/>
</svg>
