<svg width="46" height="46" viewBox="0 0 46 46" fill="none" xmlns="http://www.w3.org/2000/svg">
<mask id="mask0_1_120" style="mask-type:alpha" maskUnits="userSpaceOnUse" x="0" y="0" width="46" height="46">
<rect width="46" height="45.0213" fill="#D9D9D9"/>
</mask>
<g mask="url(#mask0_1_120)">
<path d="M23 21.3563C21.4188 21.3563 20.0651 20.8053 18.9391 19.7032C17.8131 18.6011 17.25 17.2763 17.25 15.7287C17.25 14.181 17.8131 12.8562 18.9391 11.7541C20.0651 10.652 21.4188 10.101 23 10.101C24.5813 10.101 25.9349 10.652 27.061 11.7541C28.187 12.8562 28.75 14.181 28.75 15.7287C28.75 17.2763 28.187 18.6011 27.061 19.7032C25.9349 20.8053 24.5813 21.3563 23 21.3563ZM34.4263 34.9204H11.5737C11.011 34.9204 10.5386 34.7334 10.1565 34.3594C9.77442 33.9855 9.58337 33.5231 9.58337 32.9724V31.8324C9.58337 31.058 9.81374 30.3335 10.2745 29.6589C10.7352 28.9843 11.3551 28.4606 12.134 28.0878C13.9426 27.2389 15.7523 26.6022 17.5633 26.1777C19.3743 25.7532 21.1866 25.541 23 25.541C24.8135 25.541 26.6257 25.7532 28.4368 26.1777C30.2478 26.6022 32.0575 27.2389 33.8661 28.0878C34.645 28.4606 35.2649 28.9843 35.7256 29.6589C36.1863 30.3335 36.4167 31.058 36.4167 31.8324V32.9724C36.4167 33.5231 36.2257 33.9855 35.8436 34.3594C35.4615 34.7334 34.989 34.9204 34.4263 34.9204ZM11.5 33.0445H34.5V31.8324C34.5 31.4164 34.363 31.0255 34.0891 30.66C33.8151 30.2944 33.436 29.9854 32.952 29.7329C31.3744 28.9849 29.7479 28.4119 28.0723 28.0139C26.3968 27.6159 24.706 27.4168 23 27.4168C21.294 27.4168 19.6033 27.6159 17.9278 28.0139C16.2522 28.4119 14.6257 28.9849 13.0481 29.7329C12.564 29.9854 12.185 30.2944 11.911 30.66C11.637 31.0255 11.5 31.4164 11.5 31.8324V33.0445ZM23 19.4804C24.0542 19.4804 24.9566 19.1131 25.7073 18.3784C26.458 17.6436 26.8334 16.7604 26.8334 15.7287C26.8334 14.6969 26.458 13.8137 25.7073 13.079C24.9566 12.3442 24.0542 11.9769 23 11.9769C21.9459 11.9769 21.0434 12.3442 20.2927 13.079C19.5421 13.8137 19.1667 14.6969 19.1667 15.7287C19.1667 16.7604 19.5421 17.6436 20.2927 18.3784C21.0434 19.1131 21.9459 19.4804 23 19.4804Z" fill="#138ED1"/>
</g>
</svg>
